<svg xmlns="http://www.w3.org/2000/svg" width="666.7" height="600" viewBox="0 0 667 600">
  <defs/>
  <g clip-path="url(#clipPath18)" transform="matrix(1.33333 0 0 -1.33333 0 600)">
    <g clip-path="url(#clipPath28)" transform="matrix(.5 0 0 -.5 251 225)">
      <path fill="#693f3e" fill-rule="evenodd" d="M432 357l5-1c-1 1-4 2-3 4l2 1-7 3 2-4c-2 0-2 2-3 3 0-3 0-6 3-8 0 1-1 3 1 2m-13 15c2 3 7 2 4-2l-2-1c-4 0-5 5-3 9 2 3 8 3 10 0 2-4 0-9 1-12 2-3 8-4 12-5-1-2-4-2-6-2 0-1 5-3 4-4h-3l-4 1v-3c-5 2-5 5-5 9-2-6-2-11 6-15 2-1 6 0 7 2h1c0-2-2-3-3-3h6c-1 2-2 4 1 6 1 1 5-1 5-3 0-5-8-5-10-5 2-1 4-4 2-6-2 2-2 6-6 7 1-1 2-3-1-3-2 0 0 2-1 3l-8 7c-2 3-1 9 1 16 1 3 1 7-1 9l-2 1c-3 1-5-3-5-6M378 383c4-2 7 0 11 1-2 1-4-1-6 1l6 1-7 4v-2c-1-2-4 0-6 1l3-4c2-2 1-1-1-2m25 6l-2 1c-3 1-5-2-7-4-5-5-11-9-17-9-4 1-8 4-12 7-1 0-4-2-5 1 1 2 3 1 4 1-1 3-5 3-8 5 2 2 5 0 7-2-1 3-1 10 3 11 2 0 5-3 4-5s-4-2-6-1l1-7c1 2 1 4 3 4h1c-2-3-3-6-1-8 7-7 15-5 20 0-4-2-8-3-13 0l3 1-3 4-1 3c1 1 5-3 6-2 0 2-2 4 0 6 2-4 6-8 10-8s7 5 11 5 7-4 5-8-7-5-9-3v3c2 5 5 1 4-2 3 2 5 5 2 7M420 393c4 2 8 3 11 0l4-4c2-1 4 0 2 3-2 5-14 6-17 1M418 394c-1 4-3 9-6 10h-6c-2 1-2 4 1 4 5 1 13-9 11-14"/>
      <path fill="#693f3e" fill-rule="evenodd" d="M405 399c-3 2-7 3-11 3 3 1 7 1 10-1-3 2-5 4-5 7l-1-3h-1c-5 0-7-3-10-5 4-2 8 0 11 0l-2-4c2 2 5 3 9 3m-6 12l1-3c1-3 5-6 9-9l5-5c3-4 0-10-4-13-2-2-6-4-8-3-3 0-6 3-6 6l2 3c4 0 3-5 1-5 4-4 10-3 14 4v7c-2 4-10 7-13 4-2-1-3-3-4-6-2 1-1 6 0 8h-10c-2 0-1 1 0 2 3 2 6 5 11 5l2 5M433 376l3 4c2-3 2-6 6-9-1 3 1 7-2 11v1l2 2c-3-1-6 0-9 1 3-2 6-5 6-8l-8 7c2-3 3-6 2-9m8 7c3-4 2-8 2-12 0-2 0-3-2-2-3 3-4 6-5 9-1-2-5-6-7-5l3 7c0 4-6 9-10 8-3 0-5-1-6-4-4-7-2-12 4-14-1 3 3 6 5 3l-1-3c-3-2-7-1-9 1-2 1-2 5-2 8 1 5 4 11 9 11l7-1c4-2 9-4 12-3 1 0 2 2 3 1 1 0-1-4-3-4M334 385l3 4c-2-1-5-3-6-1v2l-7-4 6-1c-2-2-4 0-6-1 4-1 7-3 11-1-2 1-3 0-1 2m-25-1c-1 2 4 5 6 1l-2-3c-3-2-9 0-9 5-1 4 4 7 8 7 3-1 7-7 10-7 5 0 9 4 11 8 2-2 0-4 0-6 1-1 5 3 6 2l-1-3-3-4 3-1c-5-3-9-2-13 0 5-5 13-7 20 0 2 2 1 5-1 8h1c2 0 2-2 3-4l1 7c-2-1-5-1-6 1s2 5 4 5c4-1 4-8 3-11 2 2 5 4 6 2-2-2-6-2-7-5 1 0 3 1 3-1 0-3-3-1-4-1-4-3-8-6-12-7-6 0-12 4-17 9-3 3-5 6-8 6l-3-1c-3-1-2-5 1-7M257 383c4-2 7 0 11 1-2 1-4-1-6 1l6 1-7 4v-2c-1-2-4 0-6 1l3-4c2-2 0-1-1-2m26 8l-2 1c-3 0-5-3-8-6-5-5-12-9-17-9-4 1-8 4-12 7-2 0-4-2-5 1 1 2 3 1 4 1-2 3-5 3-8 5 2 2 5 0 7-2-1 3-1 10 3 11 2 0 5-3 4-5s-4-2-6-1l1-7c0 2 1 4 3 4-1-3-2-6 0-8 7-7 15-5 20 0-4-2-9-3-13 0l3 1-3 4-1 3c1 1 5-3 6-2 0 2-2 4 0 6 2-4 6-8 10-8s8 6 11 7c4 0 9-3 8-7 0-5-6-7-9-5l-2 3c2 4 7 1 6-1 3 2 4 6 0 7M297 401c2 3 5 6 8 6l4-1c2 1 3 3 0 4-3 2-12-3-12-9M295 401c-3 3-5 6-8 6l-5-1c-2 1-2 3 0 4 4 2 12-3 13-9"/>
      <path fill="#693f3e" fill-rule="evenodd" d="M282 401l-9 1c2 2 5 1 8 1-2 1-5 3-5 6v-3l-2-1c-3 0-5-4-8-5 4-1 7 0 10 1l-1-5c2 3 4 4 7 5m-6 11l1-3c1-3 5-5 9-6l6-3c3-3 4-10 2-15-2-2-5-5-9-5s-8 2-8 5l1 3c4 1 5-4 2-5 7-3 14 0 14 8 0 3-1 6-3 7-4 3-10 3-13 0l-3-6c-2 1-1 5 0 7h-10c-2 0-1 1 0 2 3 2 6 5 10 6-1 1 0 5 1 5M316 396c1 2-1 4-1 5 3-1 6-2 10-1-3 1-4 5-8 5l-1 1v3c-1-3-3-5-6-6 3 0 7 1 9-1l-10-1c3-1 6-2 7-5m1 11c4-1 6-4 9-6 2-1 2-2 0-2h-9c1-2 1-6-1-7 0 2-1 5-3 6-3 3-9 3-13 0-1-1-3-4-3-7 1-8 7-11 14-8-3 1-1 6 2 5l2-3c0-3-5-5-9-5-3 0-7 3-8 5-3 5-2 12 2 15l5 3c5 1 9 3 10 6v3l2-5M213 385l3 4c-2-1-5-3-6-1v2c-2-2-5-4-8-4l7-1c-2-2-4 0-6-1 4-1 7-3 11-1-2 1-4 0-1 2m-25-1c-1 2 4 5 5 1 1-1 0-2-1-3-3-2-9 0-9 5-1 4 4 7 8 7 3-1 6-7 10-7 5 0 8 4 11 8 2-2 0-4 0-6 1-1 4 3 5 2v-3l-3-4 3-1c-5-3-9-2-13 0 5-5 13-7 20 0 2 2 1 5-1 8h1c2 0 2-2 3-4v7c-1-1-4-1-5 1s2 5 4 5c4-1 4-8 3-11 2 2 5 4 6 2-2-2-6-2-8-5 2 0 4 1 4-1 0-3-3-1-4-1-4-3-8-6-12-7-6 0-12 4-18 9-2 3-4 6-7 6l-3-1c-3-1-2-5 1-7M136 383c4-2 7 0 10 1-1 1-4-1-5 1l6 1-7 4v-2c-1-2-4 0-6 1l3-4c2-2 0-1-1-2m26 8l-2 1c-3 0-5-3-8-6-5-5-12-9-18-9l-11 7c-2 0-4-2-5 1 1 2 3 1 4 1-2 3-5 3-8 5 2 2 5 0 7-2-1 3-2 10 3 11 2 0 4-3 4-5-1-2-4-2-6-1l1-7 2 4h1c-2-3-2-6 0-8 7-7 14-5 20 0-4-2-9-3-13 0l3 1-3 4-1 3c1 1 5-3 6-2-1 2-2 4 0 6 2-4 6-8 10-8s7 6 11 7c4 0 9-3 8-7 0-5-6-7-9-5-2 1-2 2-2 3 2 4 6 1 6-1 2 2 4 6 0 7M176 401c2 3 5 6 8 6l4-1c2 1 3 3 0 4-3 2-12-3-12-9M174 401c-3 3-5 6-8 6l-5-1c-2 1-2 3 0 4 4 2 12-3 13-9"/>
      <path fill="#693f3e" fill-rule="evenodd" d="M161 401l-9 1c2 2 5 1 8 1-3 1-5 3-5 6v-3l-2-1c-3 0-5-4-8-5 4-1 7 0 10 1l-1-5c2 3 4 4 7 5m-6 11l1-3c1-3 5-5 9-6l6-3c3-3 4-10 1-15-1-2-5-5-8-5-4 0-8 2-8 5l1 3c4 1 5-4 2-5 7-3 14 0 14 8 0 3-2 6-3 7-4 3-10 3-13 0-2-1-2-4-3-6-2 1-1 5 0 7h-10c-2 0-1 1 0 2 3 2 6 5 10 6-1 1 0 5 1 5M195 396c1 2-1 4-1 5 3-1 6-2 10-1-3 1-5 5-8 5l-1 1v3c-1-3-3-5-6-6 3 0 7 1 9-1l-10-1c3-1 5-2 7-5m1 11c4-1 6-4 9-6 2-1 2-2 0-2h-9c1-2 1-6-1-7-1 2-1 5-3 6-3 3-9 3-13 0-1-1-3-4-3-7 0-8 7-11 14-8-3 1-2 6 2 5l1-3c0-3-4-5-8-5-3 0-7 3-8 5-3 5-2 12 2 15l5 3c5 1 9 3 10 6v3l2-5M-151 385l3 4c-1-1-4-3-5-1v2c-3-2-5-4-8-4l6-1c-1-2-4 0-5-1 3-1 7-3 10-1-1 1-3 0-1 2m-25-1c0 2 5 5 6 1l-1-3c-3-2-9 0-10 5 0 4 5 7 8 7 4-1 7-7 11-7s8 4 11 8v-6c1-1 4 3 5 2l-1-3c0-2-2-2-3-4l3-1c-4-3-9-2-13 0 6-5 14-7 21 0 1 2 1 5-1 8h1l2-4c2 2 2 5 1 7-2-1-4-1-5 1s2 5 4 5c4-1 4-8 3-11 2 2 5 4 6 2-2-2-6-2-8-5 1 0 3 1 4-1-1-3-3-1-4-1-4-3-8-6-12-7-6 0-13 4-18 9-2 3-4 6-7 6l-3-1c-3-1-2-5 0-7M-227 383c3-2 7 0 10 1-1 1-4-1-5 1l6 1c-3 0-5 2-8 4v-2c-1-2-4 0-5 1l3-4c2-2 0-1-1-2m26 8l-3 1c-3 0-5-3-7-6-5-5-12-9-18-9l-12 7c-1 0-3-2-4 1 1 2 3 1 4 1-2 3-6 3-8 5 1 2 5 0 6-2-1 3-1 10 4 11 1 0 4-3 3-5s-3-2-5-1c-1-2-1-5 1-7l2 4h1c-2-3-2-6 0-8 6-7 14-5 20 0-4-2-9-3-13 0l3 1c-1 2-3 2-3 4l-1 3c1 1 4-3 6-2-1 2-2 4-1 6 3-4 7-8 11-8s7 6 11 7c3 0 8-3 8-7-1-5-6-7-10-5l-1 3c1 4 6 1 6-1 2 2 3 6 0 7M-188 401c3 3 5 6 8 6l5-1c2 1 2 3 0 4-4 2-12-3-13-9M-190 401c-2 3-5 6-8 6l-4-1c-2 1-3 3 0 4 3 2 12-3 12-9"/>
      <path fill="#693f3e" fill-rule="evenodd" d="M-202 401l-10 1c2 2 6 1 9 1-3 1-5 3-6 6v-3l-1-1c-4 0-6-4-8-5 4-1 7 0 10 1 0-1-2-3-1-5 1 3 4 4 7 5m-6 11v-3c1-3 5-5 10-6l5-3c4-3 5-10 2-15-1-2-5-5-8-5-4 0-9 2-9 5l2 3c3 1 5-4 2-5 7-3 13 0 14 8 0 3-2 6-4 7-3 3-9 3-12 0-2-1-3-4-3-6-2 1-2 5-1 7h-9c-2 0-2 1 0 2 3 2 5 5 9 6l2 5M-168 396l-1 5c3-1 6-2 10-1-3 1-5 5-8 5l-2 1v3c0-3-3-5-5-6 3 0 6 1 8-1l-9-1c3-1 5-2 7-5m0 11c4-1 7-4 10-6 1-1 2-2 0-2h-10c1-2 2-6-1-7l-2 6c-3 3-9 3-13 0-2-1-3-4-3-7 0-8 7-11 14-8-3 1-2 6 2 5l1-3c0-3-4-5-8-5s-7 3-9 5c-2 5-1 12 2 15l6 3c4 1 8 3 9 6l1 3c1 0 2-4 1-5M-272 385l3 4c-1-1-4-3-5-1v2c-3-2-5-4-8-4l6-1c-1-2-4 0-5-1 3-1 7-3 10-1-1 1-3 0-1 2m-25-1c0 2 4 5 6 1l-1-3c-4-2-9 0-10 5 0 4 5 7 8 7 4-1 7-7 11-7s8 4 11 8c1-2 0-4-1-6 2-1 5 3 6 2l-1-3-3-4 3-1c-4-3-9-2-13 0 6-5 14-7 20 0 2 2 2 5 0 8h1l2-4c2 2 2 5 1 7-2-1-4-1-5 1s2 5 3 5c5-1 4-8 3-11 2 2 6 4 7 2-2-2-6-2-8-5 1 0 3 1 4-1-1-3-3-1-4-1l-12-7c-6 0-13 4-18 9-2 3-5 6-7 6l-3-1c-3-1-2-5 0-7M-349 383c4-2 8 0 11 1-1 1-4-1-5 1l6 1c-3 0-5 2-8 4v-2c-1-2-4 0-5 1l3-4c2-2 0-1-2-2m27 8l-3 1c-3 0-5-3-7-6-5-5-12-9-18-9-4 1-8 4-12 7-1 0-4-2-4 1 1 2 2 1 4 1-2 3-6 3-8 5 1 2 4 0 6-2-1 3-1 10 3 11 2 0 5-3 4-5s-3-2-5-1c-1-2-1-5 1-7l2 4h1c-2-3-2-6-1-8 7-7 15-5 21 0-4-2-9-3-13 0l3 1c-1 2-3 2-3 4l-1 3c1 1 4-3 5-2v6c3-4 7-8 11-8s7 6 11 7c3 0 8-3 8-7-1-5-7-7-10-5l-1 3c1 4 6 1 6-1 2 2 3 6 0 7M-309 401c3 3 5 6 8 6l5-1c2 1 2 3 0 4-4 2-12-3-13-9M-311 401c-2 3-5 6-8 6l-4-1c-2 1-3 3 0 4 3 2 11-3 12-9"/>
      <path fill="#693f3e" fill-rule="evenodd" d="M-323 401l-10 1c2 2 5 1 9 1-3 1-5 3-6 6v-3l-1-1c-4 0-6-4-8-5 4-1 7 0 10 1 0-1-2-3-1-5 1 3 4 4 7 5m-6 11v-3c1-3 5-5 9-6l6-3c4-3 5-10 2-15-1-2-5-5-8-5-4 0-9 2-9 5l2 3c3 1 5-4 2-5 7-3 13 0 14 8 0 3-2 6-4 7-3 3-9 3-12 0-2-1-3-4-3-6-2 1-2 5-1 7h-9c-3 0-2 1 0 2 3 2 5 5 9 6l2 5M-289 396c0 2-2 4-1 5 3-1 6-2 10-1-3 1-5 5-9 5l-1 1v3c-1-3-3-5-5-6 3 0 6 1 8-1l-9-1c3-1 5-2 7-5m0 11c4-1 7-4 10-6 1-1 2-2 0-2h-10c1-2 2-6-1-7l-2 6c-3 3-10 3-13 0-2-1-3-4-3-7 0-8 7-11 14-8-3 1-2 6 2 5l1-3c0-3-5-5-9-5-3 0-6 3-8 5-2 5-1 12 2 15l6 3c4 1 8 3 9 6l1 3c1 0 2-4 1-5M-393 385l3 4c-2-1-4-3-5-1v2l-6-5h5c-1-2-3-1-5-1 4-2 6-3 9-1-1 1-3 0-1 2m-19-6c-2 3 1 7 4 3l-1-3c-1-3-6-2-9 1-2 4 0 9 4 9 4 1 8-4 11-3 4 1 7 5 10 9 1-2 0-4-1-6 1-1 5 3 6 2l-1-3-3-4 3-1c-5-4-7-2-11-1l8-4c3 0 7 1 10 5 2 2 2 5 0 8h1l2-4 1 7c-2-1-4-1-5 1s1 5 3 5c5-1 4-8 3-11 2 2 5 4 7 2-2-2-6-2-8-5 1 0 3 1 4-1-1-3-3-1-5-1l-11-7c-6 0-9 4-16 8-2 2-5 3-8 3l-2-2c-2-3 1-6 4-7M-437 347c3 3 2 6 1 9 0-1 0-3-2-4 1 2 2 3 1 5 0-2-3-3-6-5h2c2-2-1-4-2-5l5 2c2 1 1 0 1-2m3 24l-2-1c-2-2 0-6 1-9 2-7 5-12 4-16l-7-8c-1-2 1-4-1-5-2 1-2 3-2 4-3-2-3-6-5-8-2 2 0 5 2 7-2-1-9-2-10 3-1 2 2 5 4 4 3-2 2-4 2-6l6 1-4 2 1 1c2-2 5-2 7-1 8 6 6 10 4 16 0-4 1-7-3-10l-1 3-4-2h-3c-1 1 3 3 3 4l-6 1c4 2 9 4 11 7 1 3-2 9-1 12 1 4 7 5 10 2 3-4 2-9-1-9h-3c-3 4 2 6 4 3-1 3-3 7-6 5M-431 388c0 4 1 9 4 10l5 2c2 1 2 4-1 4-6 0-11-11-8-16M-433 387c-4 0-9 0-11-3l-3-4c-2-2-4-1-3 2 1 5 13 9 17 5"/>
      <path fill="#693f3e" fill-rule="evenodd" d="M-443 376l-7-8c0 3 2 6 5 9l-9-3 3-1v-2c-2-4 0-7 1-10l4 10 3-4v9m-13 0h3c4-1 8 2 12 5l6 2c5 1 10-4 11-9v-9c-2-2-6-4-9-2l-1 3c1 3 5 1 5-2 5 3 6 8 2 15-2 2-5 3-7 2-5 0-10-6-9-10 0-2 2-4 4-6-2-1-5 1-7 4 0-3-1-7-4-10-1-2-2-1-2 1-1 4-2 8 0 12l-4 4M-411 393l-2 4c3 1 7 0 11 2-3 1-6 4-11 3h-1l-1 3c0-3-2-5-4-8 3 2 7 4 9 3-3-1-7-2-9-5 3 1 6 0 8-2m-2 11c5 0 8-2 12-3 1-1 2-2 0-3-4-1-7-2-10-1 2-2 3-6 1-8-1 2-2 5-4 5-4 2-11-2-12-6-1-2 0-5 1-8 5-5 11-6 15-1-3 0-4 5-1 5 1 0 2 0 2-2 2-3-1-6-3-7s-6 0-9 1c-5 3-8 8-7 13l4 6c4 3 8 6 8 10v3l3-4M-439 305l-4 3c0-1 2-4 0-5h-2l5-8v7c2-2 1-5 1-6 2 3 3 7 1 11 0-2 0-4-1-2m1-25c-3 0-6 5-1 6l2-1c2-3 0-9-5-10-4 0-7 5-6 8 1 4 6 7 6 11s-4 8-7 11h6c0 1-4 4-3 5s3 0 3-1c2 0 3-1 4-3l1 4c4-5 2-9 0-14 5 6 8 14 0 21-2 2-5 1-7-1l-1 1 4 2c-2 2-4 2-6 1 0-1 1-4-2-5-2-1-5 2-4 4 1 4 8 4 10 3-2 2-4 5-2 6 2-2 2-6 5-8 0 2 0 3 2 4 2 0 0-3 1-4 3-4 6-8 6-12 1-6-4-12-9-18-3-2-5-4-5-7v-3c2-3 6-2 8 0M-438 229c2 3 1 7-1 10 0-1 1-4-1-5v6l-5-8h2c2-1 0-3 0-5l4 3c1 2 1 0 1-1m-8 26v-3c0-2 2-5 5-7 5-5 10-12 9-18 0-3-3-7-6-11-1-2 1-4-1-5-2 1-2 3-2 4-3-2-3-6-5-8-2 2 0 5 2 7-2-1-9-2-10 3-1 2 2 4 4 3 3-1 2-3 2-5l6 1-4 2 1 1c2-2 5-2 7 0 8 6 5 14 0 20 2-4 4-9 0-13l-1 3-4-3s-2-2-3-1 3 5 3 6c-2-1-4-2-6-1 3 3 7 7 7 11s-5 7-6 11 2 8 6 8c5-1 7-6 5-10l-2-1c-5 2-2 6 1 6-2 2-6 3-8 0M-456 268c-3 3-6 6-6 9l1 4c0 2-3 2-4 0-2-3 4-12 9-13M-456 266c-3-2-6-5-6-8l1-4c0-2-3-3-4 0-2 3 4 12 9 12"/>
      <path fill="#693f3e" fill-rule="evenodd" d="M-456 254l-1-10-1 9c-1-3-3-5-6-6h4v-1c0-3 4-5 5-8 2 4 0 7-1 10 2 0 3-2 5-1l-5 7m-10-6h2c4 1 6 6 7 10 0 2 2 4 3 5 2 4 9 5 14 2 3-1 6-5 6-8 0-4-2-8-6-8l-2 1c-2 4 3 5 5 2 3 7-1 14-9 14-3 0-5-2-7-3-3-4-3-10 0-13 1-2 4-2 7-3-1-2-6-2-8-1 1-2 2-5 1-9-1-2-2-1-3 0-2 3-5 5-6 9l-4 2M-451 288l-5-1c1 3 3 6 1 10-1-3-5-5-5-8v-2h-4c3 0 5-2 6-5l1 8 1-9 5 7m-11 0c1 4 4 7 6 10 1 1 2 2 3 0 1-4 0-7-1-10 2 1 7 2 8 0-3-1-6-1-7-3-3-3-3-9 0-13 2-1 4-3 7-3 8 0 12 7 9 14-2-3-7-2-5 2l2 1c4 0 6-4 6-8 0-3-3-7-6-8-5-3-12-2-14 1l-3 6c-1 4-3 9-7 9l-2 1c0 1 3 2 4 1M-439 184l-4 3c0-1 2-4 0-5h-2l5-8v6c2-1 1-4 1-5 2 3 3 7 1 11 0-2 0-4-1-2m1-25c-3 0-6 5-1 6l2-1c2-3 0-9-5-10-4 0-7 5-6 8 1 4 6 7 6 11s-4 8-7 11h6c0 1-4 4-3 5s3 0 3-1c2 0 3-2 4-3l1 3c4-4 2-9 0-13 5 6 8 14 0 21-2 1-5 1-7-1l-1 1 4 2c-2 2-4 2-6 1 0-2 1-4-2-5-2-1-5 2-4 4 1 4 8 4 10 3-2 2-4 5-2 6 2-2 2-6 5-8 0 1 0 3 2 4 2 0 0-3 1-4 3-4 6-8 6-12 1-6-4-13-9-18-3-2-5-4-5-7v-3c2-3 6-2 8 0M-438 108c2 3 1 7-1 10 0-1 1-4-1-5v6l-5-8h2c2-1 0-4 0-5l4 3c1 2 1 0 1-1m-8 26v-3c0-2 2-5 5-7 5-5 10-12 9-18 0-3-3-8-6-12-1-1 1-3-1-4-2 1-2 3-2 4-3-2-3-6-5-8-2 1 0 5 2 6-2 0-9-1-10 4-1 1 2 4 4 3 3-1 2-3 2-5 2-1 4-1 6 1l-4 2 1 1c2-2 5-2 7 0 8 6 5 14 0 20 2-4 4-9 0-13l-1 3-4-3c0-1-2-2-3-1s3 4 3 6c-2-1-4-2-6-1 3 3 7 7 7 11s-5 7-6 11c-1 3 2 8 6 8 5-1 7-6 5-10l-2-1c-5 2-2 6 1 6-2 2-6 3-8 0M-456 147c-3 3-6 5-6 8l1 5c0 2-3 2-4 0-2-4 4-12 9-13M-456 145c-3-2-6-5-6-8l1-4c0-2-3-3-4 0-2 3 4 12 9 12"/>
      <path fill="#693f3e" fill-rule="evenodd" d="M-456 133l-1-10-1 9c-1-3-3-5-6-6h4v-1c0-4 4-5 5-8 2 4 0 7-1 10 2 0 3-2 5-1-2 1-4 4-5 7m-10-6h2c4 1 6 5 7 10 0 2 2 4 3 5 2 4 9 5 14 2 3-1 6-5 6-8 0-4-2-9-6-9l-2 2c-2 4 3 5 5 2 3 7-1 13-9 14-3 0-5-2-7-3-3-4-3-10 0-13 1-2 4-3 7-3-1-2-6-2-8-1 1-2 2-5 1-9-1-2-2-2-3 0-2 3-5 5-6 9l-4 2M-451 167l-5-1c1 3 3 6 1 10-1-3-5-5-5-8v-2h-4c3 0 5-3 6-5l1 8 1-9 5 7m-11 0c1 4 4 7 6 10 1 1 2 2 3 0 1-4 0-7-1-10 2 1 7 2 8 0l-7-3c-3-3-3-9 0-13 2-2 4-3 7-3 8 0 12 7 9 14-2-3-7-2-5 2l2 1c4 0 6-4 6-8 0-3-3-7-6-9-5-2-12-1-14 2l-3 6c-1 4-3 8-7 9l-2 1c0 1 3 2 4 1M-439 63l-4 3c0-1 2-4 0-5h-2l5-8v6c2-1 1-4 1-5 2 3 3 7 1 10 0-1 0-3-1-1m1-25c-3 0-6 5-1 6l2-1c2-4 0-9-5-10-4 0-7 5-6 8 1 4 6 7 6 11s-4 8-7 11c2 1 4 0 6-1 0 2-4 5-3 6s3 0 3-1c2 0 3-2 4-3l1 3c4-4 2-9 0-13 5 6 8 14 0 20-2 2-5 2-7 0l-1 1 4 2c-2 2-4 2-6 1 0-2 1-4-2-5-2-1-5 2-4 3 1 5 8 4 10 4-2 1-4 5-2 6 2-2 2-6 5-8 0 1 0 3 2 4 2-1 0-3 1-4 3-4 6-9 6-12 1-6-4-13-9-18-3-2-5-5-5-7v-3c2-3 6-2 8 0M-438-13c2 3 1 7-1 10 0-1 1-4-1-5v6l-5-8h2c2-1 0-4 0-5l4 3c1 2 1 0 1-1m-8 26v-3c0-3 2-5 5-7 5-5 10-12 9-18 0-4-3-8-6-12-1-1 1-3-1-4-2 1-2 3-2 4-3-2-3-6-5-8-2 1 0 4 2 6-2-1-9-1-10 3-1 2 2 5 4 4 3-1 2-3 2-5 2-1 4-1 6 1l-4 2 1 1c2-2 5-2 7-1 8 7 5 15 0 21 2-4 4-9 0-13l-1 3c-1-1-2-3-4-3 0-1-2-2-3-1s3 4 3 5h-6c3 3 7 7 7 11s-5 7-6 11c-1 3 2 8 6 8 5-1 7-7 5-10l-2-1c-5 1-2 6 1 6-2 2-6 3-8 0M-456 26c-3 3-6 5-6 8l1 5c0 2-3 2-4 0-2-4 4-12 9-13M-456 24c-3-2-6-5-6-8l1-4c0-2-3-3-4 0-2 3 4 12 9 12"/>
      <path fill="#693f3e" fill-rule="evenodd" d="M-456 12l-1-10-1 9c-1-3-3-5-6-6h4V4c0-4 4-6 5-8 2 4 0 7-1 10 2 0 3-2 5-1-2 1-4 4-5 7m-10-6h2c4 1 6 5 7 9 0 3 2 5 3 6 2 4 9 5 14 2 3-1 6-5 6-8 0-4-2-9-6-9l-2 2c-2 3 3 5 5 2 3 7-1 13-9 14-3 0-5-2-7-4-3-3-3-9 0-12 1-2 4-3 7-3-1-2-6-2-8-1 1-2 2-6 1-9-1-2-2-2-3 0-2 3-5 5-6 9l-4 2M-451 46l-5-1c1 3 3 6 1 10-1-3-5-5-5-8v-2h-4c3-1 5-3 6-5l1 8 1-9 5 7m-11 0c1 4 4 7 6 10 1 1 2 2 3 0 1-4 0-7-1-10 2 1 7 2 8-1l-7-2c-3-3-3-9 0-13 2-2 4-3 7-3 8 0 12 7 9 14-2-3-7-2-5 2l2 1c4 0 6-4 6-8s-3-7-6-9c-5-2-12-1-14 2l-3 6c-1 4-3 8-7 9l-2 1c0 1 3 2 4 1M-439-58l-4 3c0-1 2-4 0-5h-2l5-8v6c2-1 1-4 1-5 2 3 3 7 1 10 0-1 0-3-1-1m1-25c-3 0-6 4-1 6l2-1c2-4 0-9-5-10-4 0-7 5-6 8 1 4 6 7 6 11s-4 8-7 11c2 1 4 0 6-1 0 1-4 5-3 6s3-1 3-1l4-3 1 3c4-4 2-9 0-13 5 6 8 14 0 20-2 2-5 2-7 0l-1 1 4 2c-2 2-4 2-6 1 0-2 1-4-2-5-2-1-5 1-4 3 1 5 8 4 10 3-2 2-4 5-2 7 2-2 2-6 5-8 0 1 0 3 2 4 2-1 0-3 1-5 3-3 6-8 6-11 1-6-4-13-9-18-3-2-5-5-5-7v-3c2-3 6-2 8 0M-438-135c2 4 1 8-1 11 0-1 1-4-1-5v6l-5-8h2c2-1 0-4 0-5l4 3c1 2 1 0 1-2m-8 27v-3c0-3 2-5 5-7 5-6 10-12 9-18 0-4-3-8-6-12-1-1 1-4-1-4-2 1-2 2-2 4-3-2-3-6-5-8-2 1 0 4 2 6-2-1-9-1-10 3-1 2 2 5 4 4 3-1 2-4 2-5 2-1 4-1 6 1l-4 2 1 1c2-2 5-2 7-1 8 7 5 15 0 21 2-4 4-9 0-13l-1 3c-1-2-2-3-4-3 0-1-2-2-3-1s3 4 3 5h-6c3 3 7 7 7 11s-5 7-6 11c-1 3 2 8 6 8 5-1 7-7 5-10l-2-1c-5 1-2 6 1 6-2 2-6 3-8 0M-456-95c-3 3-6 5-6 8l1 5c0 2-3 2-4 0-2-4 4-12 9-13M-456-97c-3-2-6-5-6-8l1-4c0-2-3-3-4-1-2 4 4 12 9 13"/>
      <path fill="#693f3e" fill-rule="evenodd" d="M-456-110l-1-9-1 9c-1-3-3-5-6-6h4v-1c0-4 4-6 5-8 2 4 0 7-1 10 2 0 3-2 5-1l-5 6m-10-6l2 1c4 1 6 5 7 9l3 6c2 4 9 5 14 2 3-1 6-5 6-8 0-4-2-9-6-9l-2 2c-2 3 3 5 5 2 3 7-1 13-9 13-3 1-5-1-7-3-3-3-3-10 0-12 1-2 4-3 7-3-1-2-6-2-8-1 1-2 2-6 1-9s-2-2-3 0c-2 3-5 5-6 9l-4 1M-451-75c-2 0-3-2-5-1 1 3 3 6 1 10-1-3-5-5-5-9v-1h-4c3-1 5-3 6-6l1 9 1-9 5 7m-11 0c1 4 4 7 6 10 1 1 2 2 3-1s0-7-1-9c2 1 7 2 8-1l-7-2c-3-3-3-10 0-13 2-2 4-3 7-3 8 0 12 7 9 14-2-3-7-2-5 1l2 2c4 0 6-5 6-9 0-3-3-6-6-8-5-2-12-1-14 2l-3 6c-1 4-3 8-7 9l-2 1 4 1M-439-179l-4 3c0-2 2-5 0-5l-2-1 5-7v6c2-1 1-4 1-5 2 3 3 6 1 10 0-1 0-3-1-1m1-25c-3 0-6 4-1 6 0 0 2 0 2-2 2-3 0-8-5-9-4 0-7 4-6 8s6 7 6 11-4 8-7 10c2 2 4 1 6 0 0 1-4 5-3 6l3-1 4-3 1 3c4-4 2-9 0-13 5 6 8 13 0 20-2 2-5 2-7 0l-1 1 4 2-6 1c0-2 1-4-2-5-2-1-5 1-4 3 1 5 8 4 10 3-2 2-4 5-2 7 2-2 2-6 5-8 0 1 0 3 2 4 2-1 0-3 1-5 3-4 6-8 6-11 1-6-4-13-9-18-3-2-5-5-5-7v-3c2-3 6-2 8 0M-438-256c2 4 1 8-1 11 0-1 1-4-1-6v7l-5-8h2c2-1 0-4 0-5l4 2c1 3 1 1 1-1m-8 27v-3c0-3 2-5 5-7 5-6 10-12 9-18 0-4-3-8-6-12-1-1 1-4-1-4s-2 2-2 4c-3-2-3-6-5-8-2 1 0 4 2 6-2-1-9-1-10 3-1 2 2 5 4 4 3-1 2-4 2-5 2-1 4-1 6 1-1 0-3 0-4 2l1 1c2-2 5-3 7-1 8 7 5 15 0 21 2-5 4-9 0-14l-1 4-4-4h-3c-1 1 3 4 3 5-2 0-4-2-6 0 3 3 7 7 7 11s-5 7-6 11c-1 3 2 8 6 8 5-1 7-7 5-10l-2-1c-5 1-2 6 1 6-2 2-6 3-8 0M-456-216c-3 2-6 5-6 8l1 5c0 2-3 2-4 0-2-4 4-12 9-13M-456-218c-3-2-6-5-6-8l1-4c0-3-3-3-4-1-2 4 4 12 9 13"/>
      <path fill="#693f3e" fill-rule="evenodd" d="M-456-231l-1-9-1 9c-1-3-3-5-6-6h4v-1c0-4 4-6 5-8 2 4 0 7-1 10 2 0 3-2 5-1l-5 6m-10-6l2 1c4 1 6 5 7 9l3 6c2 3 9 5 14 2 3-1 6-5 6-8 0-4-2-9-6-9l-2 2c-2 3 3 4 5 2 3 6-1 13-9 13-3 0-5-1-7-3-3-3-3-10 0-12 1-2 4-3 7-3-1-3-6-2-8-1 1-2 2-6 1-9s-2-2-3 0c-2 3-5 5-6 9l-4 1M-451-196c-2 0-3-2-5-1 1 2 3 6 1 9-1-2-5-4-5-8v-1h-4c3-1 5-3 6-6l1 9 1-9 5 7m-11 0c1 4 4 6 6 10 1 1 2 2 3-1s0-7-1-9c2 1 7 2 8-1l-7-2c-3-3-3-10 0-13 2-2 4-3 7-3 8 0 12 7 9 13-2-2-7-1-5 2l2 2c4 0 6-5 6-9 0-3-3-7-6-8-5-2-12-1-14 2l-3 6c-1 4-3 8-7 9l-2 1 4 1M-439-300l-4 3c0-2 2-5 0-6h-2l5-7v6c2-1 1-4 1-5 2 3 3 6 1 10 0-1 0-3-1-1m1-25c-3 0-6 4-1 6 0 0 2 0 2-2 2-3 0-9-5-9-4-1-7 4-6 8s6 7 6 11-4 8-7 10c2 2 4 1 6 0 0 1-4 5-3 6l3-1 4-3 1 3c4-4 2-9 0-13 5 6 8 13 0 20-2 2-5 2-7 0l-1 1 4 2-6 1c0-2 1-5-2-6-2 0-5 2-4 4 1 5 8 4 10 3-2 2-4 5-2 7 2-3 2-6 5-8 0 1 0 3 2 4 2-1 0-3 1-5 3-4 6-8 6-11 1-6-4-13-9-18-3-3-5-5-5-8v-2c2-4 6-2 8 0M-427-366c-1 3-3 4-6 6l2-4-4 4v-8l2 1c2 0 2-3 2-4l2 4c0 3 1 1 2 1m-18 16l1-2c0-3 4-4 7-5 7-2 13-3 15-7l2-10c1-1 3-1 2-3-1-1-2 0-3 1-1-4 2-6 3-8-2-2-4 2-4 4-1-2-4-8-9-6-2 1-2 5 0 6 3 1 4-1 5-2 2 1 3 3 3 5l-4-2v1c3 1 5 3 5 6 1 9-3 11-10 12 3-2 6-3 6-8-1-1-1 1-2 1l-2-4-1-3c-2 0-1 5-2 5-1-1-2-4-4-4 1 5 2 10 1 13-2 3-8 4-10 7s0 8 5 8c4 0 8-3 6-6l-2-2c-5 0-3 5 0 5-3 1-7 2-8-2M-456-337c-3 2-6 5-6 8l1 4c0 3-3 3-4 1-2-4 4-12 9-13M-456-339c-3-3-6-6-5-10l2-5c0-3-2-4-4-1-3 4 2 15 7 16"/>
      <path fill="#693f3e" fill-rule="evenodd" d="M-454-353l2-11c-2 2-3 6-3 10-1-4-2-7-4-9l3 2 1-2c2-4 6-4 9-6-1 5-4 7-6 10h5c-3 1-5 3-7 6m-8-10l2 1c3 3 4 8 4 13l2 7c2 4 9 4 14 2 3-1 6-3 7-6 0-2-1-6-4-7h-3c-2 3 3 5 4 3 2 6-2 10-10 10-3 0-5-1-6-3-3-4-1-11 2-13 2-2 5-1 7-1 0-2-4-4-7-3 2-2 4-5 5-9 1-3 0-2-2-2-3 2-7 4-10 8h-5M-451-318c-2 1-3-1-5-1 1 3 3 6 1 10-1-2-5-4-5-8v-1h-4c3-1 5-3 6-6l1 9 1-9 5 6m-11 1c1 4 4 6 6 9 1 2 2 3 3 0s0-7-1-9c2 1 7 1 8-1-3 0-6-1-7-3-3-2-3-9 0-12 2-2 4-3 7-3 8 0 12 6 9 13-2-2-7-1-5 2l2 2c4 0 6-5 6-9 0-3-3-7-6-8-5-3-12-1-14 2l-3 6c-1 4-3 8-7 9l-2 1 4 1M-397-384l-3-4c1 0 4 2 5 1v-3l7 5-6 1h6c-4 2-7 3-10 2 1-1 3-1 1-2m24 1c1-3-4-6-6-1 0 1 0 2 2 2 3 3 9 0 9-5 1-4-4-7-8-6-3 1-7 6-11 6s-7-4-10-7c-2 2 0 4 0 6-1 0-4-3-5-2s1 3 1 3l3 3-2 2c4 3 6 1 11-1-7 5-9 8-17 2-2-1-2-4-1-7l-1-1-1 5c-2-1-3-4-3-6 2 0 4 0 5-3 0-2-4-4-5-3-5 3-1 9 0 11-2-1-6-2-6 1 3 0 6-1 9 2-1 0-3 0-3 2 2 2 3 0 4-1 4 2 7 4 10 4 3 1 10-3 15-9 3-3 5-5 8-5h2c4 2 2 6 0 8M-321-383c-4 2-7 1-11-1h6l-6-1c2-1 5-2 7-5v3c1 1 4-1 6-1l-3 4c-3 1-1 1 1 1m-27-8h3c3 0 5 2 8 5 5 6 11 10 17 9 4 0 8-3 12-6 1-1 4 1 4-1s-2-2-4-1c2-4 6-4 8-5-1-3-4-1-6 1 1-2 1-9-3-10-2-1-5 2-4 4 1 3 4 3 5 2v6l-3-4-1 1c2 2 3 5 1 7-7 8-15 5-20 0 4 2 8 4 13 0l-3-1 3-4v-3l-5 3c0-2 2-4 0-6-3 3-6 7-11 7-3 0-7-5-10-6-4-1-9 2-8 6 0 5 6 8 9 5 1 0 2-1 1-2-1-5-6-2-5 1-3-2-4-6-1-8M-361-401c-2-3-5-6-8-6l-4 1c-3 0-3-3-1-4 4-2 12 4 13 9M-359-401c2-3 5-6 8-6l5 1c2 0 2-3 0-4-4-2-12 4-13 9"/>
      <path fill="#693f3e" fill-rule="evenodd" d="M-346-401l9-1h-9l6-6v3h1c4 0 6 4 9 5-4 2-7 0-10 0-1 1 1 2 1 4l-7-5m6-10l-1 2c-1 4-5 6-9 7l-6 3c-3 2-4 9-2 14 2 3 5 6 8 6 4 0 9-2 9-6l-2-2c-3-1-4 4-2 5-6 3-13-1-13-9 0-3 1-5 3-7 3-2 10-2 13 0l2 7c3-1 2-6 1-8 2 1 6 2 9 1s2-2 1-3c-4-2-6-5-10-6l-1-4M-380-396c-1-2 1-3 1-4-3 0-6 2-10 0 2-1 4-5 8-5h1v-3l6 6h-9l9 1-6 5m-1-11c-4 1-6 4-9 6-2 1-3 2 0 3s7 0 9-1c-1 2-1 7 1 8 0-3 1-5 3-7s9-2 12 0c2 2 4 4 3 7 0 8-6 12-13 9 3-1 1-6-2-5l-2 2c0 4 5 6 9 6 3 0 7-3 8-6 3-5 2-12-2-14l-6-3c-4-1-8-3-9-7l-1-2-1 4M329-384l-3-4c1 0 4 2 5 1v-3l8 5-6 1h5c-3 2-7 3-10 1 1 0 3 0 1-1m25 1c0-3-5-6-6-1l1 2c4 3 9 0 10-5 0-4-5-7-8-6-4 1-7 6-11 6s-8-4-11-7v6l-5-3c-1 1 0 3 1 3 0 2 2 3 3 4l-3 1c4 4 9 2 13 0-6 5-14 8-21 0-1-2-1-5 1-7l-1-1-2 4c-2-2-2-4-1-6 2 1 4 1 5-2 1-2-2-5-4-4-4 1-4 8-3 10-2-2-5-4-6-1 2 1 6 1 8 5-1-1-3-1-4 1 1 2 3 0 4 1 4 3 8 6 12 6 6 1 13-3 18-9 2-3 4-5 7-5h3c3 2 2 6 0 8M402-381c-3 1-6-1-8-3 1 0 3 2 4 0l-5-1 8-4-1 3c1 2 4 0 5 0l-3 3c-3 1-1 1 0 2m-23-10h3c3 0 5 2 7 5 5 6 8 10 12 11l11-2c1 0 2 3 3 1s-1-2-2-3c4-2 6 0 9 0 0-3-3-3-6-2 2-2 7-7 3-11-2-1-6 0-6 3 0 2 2 3 4 3 0 3-2 4-3 5l-1-4h-1c1 3 0 6-3 7-8 4-11 1-15-4 3 2 6 4 10 2l-2-2 4-3 1-2c0-2-4 1-5 0 1-1 3-3 2-5-4 2-8 6-11 5-4 0-7-5-11-6-3-1-8 2-8 6 1 5 6 8 10 5l1-2c-1-5-6-2-6 1-2-2-3-6 0-8M366-401c-3-3-5-6-8-6l-5 1c-2 0-2-3 0-4 4-2 12 4 13 9M368-401c2-3 5-6 8-6l4 1c2 0 3-3 0-4-3-2-12 4-12 9"/>
      <path fill="#693f3e" fill-rule="evenodd" d="M380-401l10-1h-9l6-6v3h1c4 0 6 4 9 6-5 1-8-1-11-1 0 1 2 2 1 4-1-2-4-4-7-5m6-10v2c-1 4-5 6-10 7-2 0-4 2-5 3-4 2-5 9-2 14 1 3 5 6 8 6 4 0 9-2 9-6l-2-2c-3-1-5 4-2 5-7 3-13-1-14-9 0-3 2-5 4-7 3-2 9-2 12 0 2 2 3 4 3 7 2-1 2-6 1-8 2 1 6 2 10 1 2 0 2-1 0-2-3-3-6-6-10-7l-2-4M346-396l1-4c-3 0-6 2-10 0 3-1 5-5 8-5h2v-3l5 6h-8l9 1-7 5m0-11c-4 1-7 4-10 6-1 1-2 2 0 3 4 1 7 0 10-1-1 2-2 7 1 8l2-7c3-2 9-2 13 0 2 2 3 4 3 7 0 8-7 12-14 9 3-1 2-6-2-5l-1 2c0 4 4 6 8 6s7-3 9-6c2-5 1-12-2-14l-6-3c-4-1-8-3-9-7l-1-2c-1 0-2 3-1 4M430-360l2-4c1 1 0 5 2 5l2-1-2 7-2-4c-1 2 1 3 1 4-3-2-5-3-5-7 1 1 2 2 2 0m4 20c3 0 6-4 1-5l-2 2c-2 2 0 6 5 7 4 1 7-4 6-7-1-4-7-6-8-9s2-8 3-12c-2-1-3 2-5 3-1-1 1-5-1-6l-2 3-2 4-2-2c-1 5 2 7 5 10-7-3-11-6-8-15 0-2 3-4 6-4v-1c-2-1-4 0-5 1l4-5c1 2 3 4 5 3 2 0 3-4 1-6-4-3-8 3-10 5 0-2 0-6-3-5 1 2 3 5 2 8-1-1-2-2-3-1-2 2 1 2 2 3v11c1 4 7 6 13 9l7 6-1 3c-1 3-5 2-8 0M434-289c-2-4 0-7 1-10 1 1-1 4 1 5l1-6 4 7h-2c-2 1 0 4 1 6l-4-3c-2-2-1 0-2 1m8-26l1 3c0 2-3 4-6 7-5 5-9 12-9 18l7 11c0 2-2 4 1 5 2-1 1-3 1-4 3 2 3 5 5 8 2-2 0-5-2-7 3 1 10 2 11-3 0-2-3-4-5-4-2 2-2 4-1 6l-7-1 4-2v-1c-3 2-6 2-8 0-7-7-5-14 0-20-2 4-3 9 0 13l1-3 4 3 3 1c1-1-3-5-2-6 2 1 4 2 6 0-4-2-8-6-8-10s6-7 7-11c0-4-3-9-7-8-5 0-7 6-5 9 1 2 2 2 3 2 4-2 2-6-1-6 2-2 6-4 7 0M452-329c3-2 7-5 6-8l-1-5c1-2 3-3 4 0 3 5-3 12-9 13M452-327c3 3 7 5 6 8l-1 5c1 2 3 2 4 0 2-4-3-12-9-13"/>
      <path fill="#693f3e" fill-rule="evenodd" d="M452-314l1 9c2-2 2-5 1-8 1 3 3 5 6 5h-3l-1 2c0 3-3 5-5 8-1-4 0-7 1-10l-5 1c3-2 4-4 5-7m11 6l-3-1c-3 0-5-5-6-9l-3-6c-3-3-10-4-15-1-2 1-5 5-5 8 0 4 2 8 5 8l3-1c1-4-4-5-5-2-3-7 1-14 8-14 3 0 6 2 7 3 3 4 3 10 0 13-1 2-4 2-6 3 1 2 5 1 7 0v10c0 2 1 1 2 0 2-3 5-6 6-10 1 1 5 0 5-1M446-348h5c-1-3-4-6-3-10 2 2 6 3 7 7l1 2s2-2 3-1c-3 1-4 4-5 7 0-3 0-7-2-9v10c-1-3-3-5-6-6m11-3c-2-4-6-7-9-9-1-1-2-2-2 1 0 4 2 7 3 10-2-1-7-1-7 2l7 1c3 3 3 10 0 14-1 1-4 3-7 3-8 0-11-8-8-13 1 2 6 1 4-2l-3-1c-3 1-4 4-4 7s3 7 5 8c5 3 12 2 15-2l3-5c1-5 2-10 5-12l3-1-5-1M436-244l4-3c-1 1-3 4-1 5h2c-2 3-4 5-4 8l-1-7c-2 2 0 5-1 6-1-3-3-7-1-11 1 2 0 4 2 2m-1 25c3 0 5-5 1-6-1-1-2 0-3 1-2 3 0 9 5 10 4 0 7-5 7-8-1-4-7-7-7-11s4-8 8-11h-6c-1-1 3-4 2-5h-3l-4 4-1-4c-3 5-2 9 0 14-5-6-7-14 0-21 2-2 5-1 8 1v-1c0-2-2-2-4-2 2-2 5-2 7-1-1 1-1 4 1 5s5-2 5-4c-1-4-8-4-11-3 2-2 4-5 2-6-2 2-2 6-5 8 0-2 1-3-1-4-3 0-1 3-1 4-3 4-6 8-7 12 0 6 4 12 9 18 3 2 6 4 6 7l-1 3c-1 3-5 2-7 0M434-168c-2-3 0-7 1-10 1 1-1 4 1 5l1-6 4 7-2 1c-2 1 0 3 1 5l-4-3c-2-2-1 0-2 1m8-26l1 3c0 2-3 5-6 7-5 5-9 12-9 18l7 11c0 2-2 4 1 5 2-1 1-3 1-4 3 2 3 6 5 8 2-2 0-5-2-7 3 1 10 2 11-3 0-2-3-4-5-3s-2 3-1 5l-7-1 4-2v-1c-3 2-6 2-8 0-7-7-5-14 0-20-2 4-3 9 0 13l1-3 4 3 3 1c1-1-3-5-2-6 2 1 4 2 6 1-4-3-8-7-8-11s6-7 7-11c0-4-3-8-7-8-5 1-7 6-5 9 1 2 2 2 3 2 4-2 2-6-1-6 2-2 6-3 7 0M452-208c3-2 7-5 6-8l-1-4c1-2 3-3 4 0 2 3-3 12-9 12M452-206c3 3 7 6 6 9l-1 4c1 2 3 2 4 0 2-3-3-12-9-13"/>
      <path fill="#693f3e" fill-rule="evenodd" d="M452-193l1 9c2-2 2-5 1-8 1 3 3 5 6 6l-3-1-1 2c0 3-3 5-5 8-1-4 0-7 1-10-1 0-3 2-5 1 3-2 4-4 5-7m11 6h-3c-3-1-5-6-6-10l-3-5c-3-4-10-5-15-2-2 1-5 5-5 8 0 4 2 8 5 8l3-1c1-4-4-5-5-2-3-7 1-14 8-14 3 0 6 2 7 3 3 4 3 10 0 13-1 2-4 2-6 3 1 2 5 2 7 1v9c0 2 1 1 2 0l6-9 5-2M447-227l5 1c-1-3-2-6-1-10 2 3 5 5 5 8l1 2 3-1c-3 1-5 3-6 6 1-3 1-6-1-8l-1 9c-1-3-2-5-5-7m11-1l-6-9c-1-1-2-2-2 0v10c-2-2-6-2-7 0 2 1 5 1 6 3 3 3 3 9 0 13-1 1-4 3-7 3-7 0-11-7-8-14 1 3 6 2 5-2l-3-1c-3 0-5 4-5 8 0 3 3 7 5 8 5 3 12 2 15-1l3-6c1-4 3-9 6-10h3l-5-2M436-123l4-3c-1 1-3 4-1 5h2c-2 3-4 5-4 8l-1-6c-2 1 0 4-1 5-1-3-3-7-1-11 1 2 0 4 2 2m-1 25c3 0 5-5 1-6l-3 1c-2 3 0 9 5 10 4 0 7-5 7-8-1-4-7-7-7-11s4-8 8-11h-6c-1-1 3-4 2-5l-3 1c-2 0-2 1-4 3l-1-3c-3 4-2 9 0 13-5-6-7-14 0-21 2-1 5-1 8 1v-1l-4-2c2-2 5-2 7-1-1 1-1 4 1 5s5-2 5-4c-1-4-8-4-11-3 2-2 4-5 2-6-2 2-2 6-5 8 0-2 1-3-1-4-3 0-1 3-1 4-3 4-6 8-7 12 0 6 4 13 9 18 3 2 6 4 6 7l-1 3c-1 3-5 2-7 0M434-47c-2-3 0-7 1-10 1 1-1 4 1 5l1-6c0 3 2 5 4 8h-2c-2 1 0 4 1 5l-4-3c-2-2-1 0-2 1m8-26l1 3c0 2-3 5-6 7-5 5-9 12-9 18l7 11c0 2-2 4 1 5 2-1 1-3 1-4 3 2 3 6 5 8 2-2 0-5-2-7 3 1 10 2 11-3 0-2-3-4-5-3s-2 3-1 5c-2 1-5 1-7-1l4-2v-1c-3 2-6 2-8 0-7-6-5-14 0-20-2 4-3 9 0 13l1-3 4 3 3 1c1-1-3-5-2-6 2 1 4 2 6 1-4-3-8-7-8-11s6-7 7-11c0-3-3-8-7-8-5 1-7 6-5 10l3 1c4-2 2-6-1-6 2-2 6-3 7 0M452-86c3-3 7-5 6-8l-1-5c1-2 3-2 4 0 2 4-3 12-9 13M452-84c3 2 7 5 6 8l-1 4c1 2 3 3 4 0 2-3-3-12-9-12"/>
      <path fill="#693f3e" fill-rule="evenodd" d="M452-72l1 10c2-2 2-6 1-9 1 3 3 5 6 6h-3l-1 1c0 3-3 5-5 8-1-4 0-7 1-10-1 0-3 2-5 1 3-2 4-4 5-7m11 6h-3c-3-1-5-5-6-10l-3-5c-3-4-10-5-15-2-2 1-5 5-5 8 0 4 2 9 5 9l3-2c1-4-4-5-5-2-3-7 1-14 8-14 3 0 6 2 7 3 3 4 3 10 0 13-1 2-4 2-6 3 1 2 5 2 7 1v9c0 2 1 2 2 0 2-3 5-5 6-9l5-2M447-106l5 1c-1-3-2-6-1-10 2 3 5 5 5 8l1 2h3c-3 0-5 2-6 5 1-3 1-6-1-8l-1 9c-1-3-2-5-5-7m11 0c-1-4-4-7-6-10-1-1-2-2-2 0v10c-2-1-6-2-7 0l6 3c3 3 3 9 0 13-1 2-4 3-7 3-7 0-11-7-8-14 1 3 6 2 5-2l-3-1c-3 0-5 4-5 8 0 3 3 7 5 9 5 2 12 1 15-2l3-6c1-4 3-8 6-9l3-1c0-1-4-2-5-1M436-2l4-3c-1 1-3 4-1 5h2c-2 3-4 5-4 8l-1-6c-2 1 0 4-1 5-1-3-3-7-1-10 1 1 0 3 2 1m-1 25c3 0 5-5 1-6l-3 1c-2 4 0 9 5 10 4 0 7-5 7-8-1-4-7-7-7-11s4-8 8-11h-6c-1-1 3-4 2-5l-3 1c-2 0-2 2-4 3l-1-3c-3 4-2 9 0 13-5-6-7-14 0-21 2-1 5-1 8 1v-1l-4-2c2-2 5-2 7-1-1 2-1 4 1 5s5-2 5-4c-1-4-8-4-11-3 2-2 4-5 2-6-2 2-2 6-5 8 0-1 1-3-1-4-3 1-1 3-1 4-3 4-6 8-7 12 0 6 4 13 9 18 3 2 6 4 6 7l-1 3c-1 3-5 2-7 0M434 74c-2-3 0-7 1-10 1 1-1 4 1 5l1-6c0 3 2 5 4 8h-2c-2 1 0 4 1 5l-4-3c-2-2-1 0-2 1m8-26l1 3c0 3-3 5-6 7-5 5-9 12-9 18 1 4 4 8 7 12 0 1-2 3 1 4 2-1 1-3 1-4 3 2 3 6 5 8 2-1 0-5-2-6 3 1 10 1 11-4 0-1-3-4-5-3s-2 3-1 5c-2 1-5 1-7-1l4-2v-1c-3 2-6 2-8 0-7-6-5-14 0-20-2 4-3 9 0 13l1-3c2 1 2 3 4 3l3 1c1-1-3-4-2-6 2 1 4 2 6 1-4-3-8-7-8-11s6-7 7-11c0-3-3-8-7-8-5 1-7 6-5 10l3 1c4-1 2-6-1-6 2-2 6-3 7 0M452 35c3-3 7-5 6-8l-1-5c1-2 3-2 4 0 2 4-3 12-9 13M452 37c3 2 7 5 6 8l-1 4c1 2 3 3 4 0 2-3-3-12-9-12"/>
      <path fill="#693f3e" fill-rule="evenodd" d="M452 49l1 10c2-2 2-6 1-9 1 3 3 5 6 6h-3l-1 1c0 4-3 6-5 8-1-4 0-7 1-10-1 0-3 2-5 1 3-1 4-4 5-7m11 6h-3c-3-1-5-5-6-10l-3-5c-3-4-10-5-15-2-2 1-5 5-5 8 0 4 2 9 5 9l3-2c1-3-4-5-5-2-3-7 1-13 8-14 3 0 6 2 7 4 3 3 3 9 0 12-1 2-4 3-6 3 1 2 5 2 7 1v9c0 2 1 2 2 0 2-3 5-5 6-9l5-2M447 15l5 1c-1-3-2-6-1-10 2 3 5 5 5 8l1 2h3c-3 1-5 3-6 5 1-3 1-6-1-8l-1 9c-1-3-2-5-5-7m11 0c-1-4-4-7-6-10-1-1-2-2-2 0v10c-2-1-6-2-7 1l6 2c3 3 3 9 0 13-1 2-4 3-7 3-7 0-11-7-8-14 1 3 6 2 5-2l-3-1c-3 0-5 4-5 8s3 7 5 9c5 2 12 1 15-2l3-6c1-4 3-8 6-9l3-1c0-1-4-2-5-1M436 119l4-3c-1 1-3 4-1 5h2c-2 3-4 5-4 8l-1-6c-2 1 0 4-1 5-1-3-3-7-1-10 1 1 0 3 2 1m-1 25c3 0 5-4 1-6l-3 1c-2 4 0 9 5 10 4 0 7-5 7-8-1-4-7-7-7-11s4-8 8-11c-2-1-4 0-6 1-1-2 3-5 2-6l-3 1-4 3-1-3c-3 4-2 9 0 13-5-6-7-14 0-20 2-2 5-2 8 0v-1l-4-2c2-2 5-2 7-1-1 2-1 4 1 5s5-2 5-3c-1-5-8-4-11-3 2-2 4-5 2-7-2 2-2 6-5 8 0-1 1-3-1-4-3 1-1 3-1 4l-7 12c0 6 4 13 9 18 3 2 6 5 6 7l-1 3c-1 3-5 2-7 0M434 196c-2-4 0-8 1-11 1 1-1 4 1 5l1-6c0 3 2 5 4 8h-2c-2 1 0 4 1 5l-4-3c-2-2-1 0-2 2m8-27l1 3c0 3-3 5-6 7-5 5-9 12-9 18 1 4 4 8 7 12 0 1-2 4 1 4 2-1 1-2 1-4 3 2 3 6 5 8 2-1 0-4-2-6 3 1 10 1 11-3 0-2-3-5-5-4s-2 3-1 5c-2 1-5 1-7-1l4-2v-1c-3 2-6 2-8 1-7-7-5-15 0-21-2 4-3 9 0 13l1-3c2 1 2 3 4 3l3 1c1-1-3-4-2-5h6c-4-3-8-7-8-11s6-7 7-11c0-3-3-8-7-8-5 1-7 7-5 10l3 1c4-1 2-6-1-6 2-2 6-3 7 0M452 156c3-3 7-5 6-8l-1-5c1-2 3-2 4 0 2 4-3 12-9 13M452 158c3 2 7 5 6 8l-1 4c1 2 3 3 4 0 2-3-3-11-9-12"/>
      <path fill="#693f3e" fill-rule="evenodd" d="M452 170l1 10c2-2 2-5 1-9 1 3 3 5 6 6h-3l-1 1c0 4-3 6-5 8-1-4 0-7 1-10-1 0-3 2-5 1 3-1 4-4 5-7m11 6h-3c-3-1-5-5-6-9l-3-6c-3-4-10-5-15-2-2 1-5 5-5 8 0 4 2 9 5 9l3-2c1-3-4-5-5-2-3-7 1-13 8-14 3 0 6 2 7 4 3 3 3 10 0 12-1 2-4 3-6 3 1 2 5 2 7 1v9c0 3 1 2 2 0 2-3 5-5 6-9l5-2M447 136c2 0 4 2 5 1-1-3-2-6-1-10 2 3 5 5 5 9l1 1h3c-3 1-5 3-6 5 1-3 1-6-1-8l-1 9c-1-3-2-5-5-7m11 0c-1-4-4-7-6-10-1-1-2-2-2 0v10c-2-1-6-2-7 1l6 2c3 3 3 10 0 13-1 2-4 3-7 3-7 0-11-7-8-14 1 3 6 2 5-2l-3-1c-3 0-5 5-5 9 0 3 3 6 5 8 5 2 12 1 15-2l3-6c1-4 3-8 6-9l3-1c0-1-4-2-5-1M436 240l4-3c-1 2-3 4-1 5h2l-4 8-1-6c-2 1 0 4-1 5-1-3-3-7-1-10 1 1 0 3 2 1m-1 25c3 0 5-4 1-6l-3 1c-2 4 0 9 5 10 4 0 7-4 7-8-1-4-7-7-7-11s4-8 8-11c-2-1-4 0-6 1-1-1 3-5 2-6l-3 1-4 3-1-3c-3 4-2 9 0 13-5-6-7-14 0-20 2-2 5-2 8 0v-1l-4-2 7-1c-1 2-1 4 1 5s5-1 5-3c-1-5-8-4-11-3 2-2 4-5 2-7-2 2-2 6-5 8 0-1 1-3-1-4-3 1-1 3-1 5l-7 11c0 6 4 13 9 18 3 2 6 5 6 7l-1 3c-1 3-5 2-7 0M434 317c-2-4 0-8 1-11 1 1-1 4 1 6l1-7c0 3 2 5 4 8h-2c-2 1 0 4 1 5l-4-3c-2-2-1 0-2 2m8-27l1 3c0 3-3 5-6 7-5 6-9 12-9 18 1 4 4 8 7 12 0 1-2 4 1 4 2-1 1-2 1-4 3 2 3 6 5 8 2-1 0-4-2-6 3 1 10 1 11-3 0-2-3-5-5-4s-2 4-1 5c-2 1-5 1-7-1 2 0 4 0 4-2v-1c-3 2-6 3-8 1-7-7-5-15 0-21-2 5-3 9 0 14l1-4c2 2 2 3 4 3l3 1c1-1-3-4-2-5h6c-4-3-8-7-8-11s6-7 7-11c0-3-3-8-7-8-5 1-7 7-5 10 1 1 2 2 3 1 4-1 2-6-1-6 2-2 6-3 7 0M452 277c3-2 7-5 6-8l-1-5c1-2 3-2 4 0 2 4-3 12-9 13M452 279c3 2 7 5 6 8l-1 4c1 2 3 3 4 1 2-4-3-12-9-13"/>
      <path fill="#693f3e" fill-rule="evenodd" d="M452 292l1 9c2-2 2-5 1-9 1 3 3 5 6 6h-3l-1 1c0 4-3 6-5 8-1-4 0-7 1-10-1 0-3 2-5 1 3-1 4-4 5-6m11 6l-3-1c-3-1-5-5-6-9l-3-6c-3-4-10-5-15-2-2 1-5 5-5 8 0 4 2 9 5 9l3-2c1-3-4-4-5-2-3-7 1-13 8-13 3 0 6 1 7 3 3 3 3 10 0 12-1 2-4 3-6 3 1 2 5 2 7 1v9c0 3 1 2 2 0 2-3 5-5 6-9l5-1M447 257c2 0 4 2 5 1-1-3-2-6-1-9 2 2 5 4 5 8l1 1h3c-3 1-5 3-6 6 1-4 1-7-1-9l-1 9c-1-3-2-5-5-7m11 0c-1-4-4-6-6-10-1-1-2-2-2 1v9c-2-1-6-2-7 1l6 2c3 3 3 10 0 13-1 2-4 3-7 3-7 0-11-7-8-13 1 2 6 1 5-2l-3-2c-3 0-5 5-5 9 0 3 3 6 5 8 5 2 12 1 15-2l3-6c1-4 3-8 6-9l3-1-5-1M47 398c5 0 10-3 15-7v4c2 2 8 0 11-1l-6 6c-4 2 0 2 2 2-7 3-14 1-20-2 3 0 8 2 11 0-4-1-9 0-13-2m-25-26c5-2 9-5 11-9v5l2 1c7 0 11 6 16 8-7 2-13-1-19-1 0 1 3 4 2 7-3-4-8-7-13-8l18-2c-4-2-10-1-17-1m89 19c-2-4-8-1-12 2 2-4 2-14-6-16-4 0-9 4-7 7 2 4 7 4 10 2 1 4 1 7-2 10 0-2-2-5-4-6l-2 1c4 3 5 8 1 11-13 11-29 8-39 0 8 3 17 6 25 0l-6-2 6-5c0-1 3-4 1-5-1-1-8 5-10 4 0-3 3-6 0-9-5 5-13 11-21 11-7 0-14-8-21-9-7-2-16 3-15 9 0 4 4 7 8 8-11 1-19-4-20-14 0-4 3-8 6-10 7-4 20-5 25-1 3 3 5 6 5 10 5-1 4-8 2-11 5 1 11 2 18 1 5-1 3-3 0-4-6-3-10-7-18-9 1-1-1-7-3-7l-1 4c-2 5-10 8-18 10l-11 4c-7 4-9 14-4 22 3 4 10 9 16 9 8 0 17-4 17-9 0-2-2-3-3-4-3 0-5 0-6 2-2 1-4 3-4 5-4-4-6-10 0-12l5-1c6 0 10 4 15 8 10 9 23 15 34 14 7-1 15-5 23-10 3 0 7 3 9-1-2-3-6-2-8-2 4-5 11-5 15-7M-14 362c-2 0-2 1-2 3-6-4-13-5-17-4-4 2-3 6 1 6 3 1 6-1 8-1 6 0 12 4 16 9 0-3-3-6-5-8 3 0 4-7-1-5"/>
      <path fill="#693f3e" fill-rule="evenodd" d="M-61 400c-7 3-14 5-21 2 3 0 6 0 2-2-3-2-5-5-5-6 3 1 8 3 10 1v-4c5 4 10 7 15 7-4 2-8 1-12 2 3 2 8 0 11 0m15-17c-1-3 3-6 2-7-5 0-11 3-19 1 5-2 9-8 16-8l2-1v-5c2 4 6 7 11 9-6 0-13-1-16 1l18 2c-6 1-11 4-14 8m32-6l-11-4c-8-2-16-5-18-10l-1-4c-2 0-3 6-3 7-7 2-12 6-18 9-3 1-4 3 0 4 7 1 14 0 18-1-2 3-3 10 2 11 1-4 2-7 5-10 6-4 18-3 25 1 3 2 6 6 6 10 0 10-10 15-20 14 4-1 7-4 8-8 1-6-9-11-16-9-7 1-13 9-21 9s-16-6-21-11c-3 3 0 6 1 9-2 1-9-5-11-4-1 1 1 4 1 5l6 5-6 2c9 6 18 3 26 0-11 8-26 11-40 0-3-3-2-8 1-11l-1-1c-3 1-4 4-5 6-3-3-3-6-2-10 4 2 9 2 11-2 2-3-4-7-7-7-9 2-8 12-6 16-4-3-10-6-13-2 4 2 12 2 15 7-2 0-6-1-7 2 1 4 6 1 8 1 8 5 16 9 23 10 12 1 24-5 35-14 4-4 9-8 14-8l5 1c7 2 4 8 0 12l-2-5c-1-1-3-2-7-2-1 1-3 2-3 4l1 1c-1 1 0 3 2 4h1c3 2 8 4 13 4 6 0 13-5 16-9 5-8 3-18-4-22M-9 331c-2 6 9 6 7 0-1-2-6-2-7 0"/>
      <path fill="#693f3e" fill-rule="evenodd" d="M1 358c5-6 3-22-7-21-10 0-11 15-6 21l4 4c5 1 8-2 9-4"/>
      <path fill="#693f3e" fill-rule="evenodd" d="M-20 339c-2 2-1 5 3 5s3-7-3-5M6 344c3 0 5-3 3-5-6-2-7 5-3 5M-21 351c5 3 7-5 2-4-3 0-4 3-2 4M7 347c-4 0-2 5 2 5 3-1 2-7-2-5M-4 375c5-5 10-9 16-9 3 0 5 2 8 1 4 0 5-4 1-6-4-1-10 0-16 3 0-1-1-3-3-2-4 0-3 4 0 5-3 2-6 5-6 8M-3 365c-2-2-4-2-5 0l2 4c2-1 3-2 3-4M-13 333c-4-1-6 3-3 5 6 1 7-4 3-5M-1 335c0 2 3 3 6 3l1-2c2-4-7-4-7-1M-19 354c-2 1-3 2-3 4 1 2 6 3 7 1s-1-5-4-5M6 354c-1 1-3 3-2 5s6 1 7-1c0-2-2-4-5-4M-182-361l-2-4-4 1c-5 2 3 7 6 3M-177-359c2 0 5-3 1-4-2 1-4 3-1 4M-171-361c-1 1 2 2 3 1 0-2-2-2-3-1M-198-367c1 1 3 0 5-1 6-1 14 3 21 4 6 0 11 1 17-3l-14 2c-8-1-21-6-24-14-1-2 0-5 4-8l-1 3c6 7 13-4 4-5-5 0-10 6-9 9-3-2-8-4-11-2-2 0-2 2-1 3 5-1 11 0 13 4-2-1-8-3-10 0-1 1 0 3 1 3 2 1 5-1 7-1s5 0 8 3l-4-1c-2 0-8 2-6 4M189-365c-2 1-3 3-2 4 2 4 11-1 6-3l-4-1M182-359c3-1 1-3-2-4-3 1-1 4 2 4M172-360c1 1 4 0 4-1-1-1-4-1-4 1M176-364c7-1 16-5 22-4 1 1 3 2 5 1 2-2-5-4-6-4l-4 1c2-3 5-3 8-3 2 0 5 2 6 1 2 0 2-2 2-3-3-3-8-1-11 0 3-4 9-5 13-4 2-1 1-3 0-3-4-2-8 0-11 2 1-3-4-9-10-9-9 1-1 12 4 5v-3c3 3 5 6 4 8-4 8-16 13-24 14l-15-2c6 4 11 3 17 3M224-364l-1 3h-1c2-3 2-7 3-10l-1 7m-6 4h-1l1-2 4-6-2 5-2 3m-5 1h-2l2-1v1m15-12c0-2 1-4 5-4-1 1-3 3-1 5h6c2-1 2-3 1-5-2-2-8-2-12 0-3 1-6 4-7 6l-7 7-5 3h-5l-1-3c-2-1-6 1-6 2l2 4 6 1 5-1c6 0 11-2 17-4 12-5 22-11 33-17l14-10c5-2 11-6 18-8 1 0 6 0 6 2 0 1-4 2-3 4 1 5 9 2 9-1s-3-5-5-6c-5-1-13 1-20 4l-13 8c-12 6-24 16-39 21 2-2 2-6 2-8M-220-371c1 3 1 7 3 10h-1l-1-3-1-7m7 9l1 2h-1l-2-3-2-5 4 6m7 3h-2v-1l2 1m-83-30c1-2-3-3-3-4 0-2 5-2 6-2 7 2 13 6 18 8l14 10c11 6 21 12 33 17 6 2 11 4 17 4l5 1 6-1 2-4c0-1-4-3-6-2l-1 3h-5l-5-3-7-7c-1-2-4-5-7-6-4-2-10-2-12 0-1 2-1 4 1 5h6c2-2 0-4-1-5 4 0 5 2 5 4s0 6 2 8c-15-5-27-15-39-21l-13-8c-7-3-15-5-20-4-2 1-5 3-5 6s8 6 9 1M151-376h1l1 1c-1 1-3 1-2-1m-7 3h5c-1 2 2 6 5 4l1-4c6 3 8-4 1-4-1-2-2-6-6-5l-1 4c-3 0-6 1-5 5M132-365h3v2c-1 1-4 0-3-2m-9 4h7c-1 3 2 8 7 5l1-5c8 4 12-6 1-5 0-4-2-9-8-8l-1 6c-4 0-8 2-7 7M115-357v1h-2c-1-1 1-3 2-1m-1 4c3 1 9 2 10-2l-5-2c2-3 1-6-3-7-2 0-3 3-3 4-3-2-9-2-8 2l4 3c-6 3 1 9 5 2M169-385h2c-1 4-6 1-2 0m-6 5c2 2 5 1 6-1l4 2c2-2 1-4 0-5 5-1 1-7-3-3-1-1-3-4-6-3-1 2 0 4 1 5l-2 5"/>
      <path fill="#693f3e" fill-rule="evenodd" d="M101-371l-3 3-1 1c3-4 3-10 6-14l-2 10m-9 5h-2l2-2c2-4 3-7 6-9-1 2-1 5-3 7l-3 4m-7 1h-2l2-1v1m22-16c1-2 2-5 7-5-2 2-4 5-2 7s7 2 9 1 3-4 1-7c-3-3-10-4-16-2l-11 9c-2 3-6 7-10 9l-8 4-7-1v-3c-3-2-8 0-9 2 0 2 1 5 3 6h15c8 0 15-2 23-5 17-5 32-13 48-22l21-11c6-4 15-9 25-10 1 0 8 0 9 2 0 2-6 3-5 5 0 7 12 4 12 0 1-4-3-7-5-8-8-3-18 0-29 4-7 2-13 7-19 10-17 7-35 20-56 27 3-4 3-8 4-12M-146-375l1-1h1c1 2-1 2-2 1m3-7c-4-1-5 3-6 5-7 0-5 7 1 4l1 4c3 2 5-2 5-4h5c1-4-2-5-5-5l-1-4M-129-363l1-2h3c1 2-3 3-4 2m5-11c-6-1-8 4-8 8-11-1-8 9 1 5l1 5c4 3 8-2 7-5h7c1-5-3-7-7-7l-1-6M-106-356h-2v-1c1-2 3 0 2 1m0-4c0-1-1-4-3-4-5 1-5 4-3 7l-5 2c1 4 6 3 10 2 4 7 11 1 5-2l4-3c1-4-5-4-8-2M-164-385h2c4 1-1 4-2 0m6-5c-2-1-4 2-5 3-4-4-8 2-3 3-1 1-3 3-1 5l4-2c2 2 5 3 7 1l-2-5v-5"/>
      <path fill="#693f3e" fill-rule="evenodd" d="M-90-367l-2-1-2-3c-2-3-2-7-2-10 2 4 3 10 6 14m5-1l2 2h-2l-3-4c-2-2-3-5-3-7 3 2 3 5 6 9m9 3h-2v-1l2 1m-117-37c0-2-5-3-5-5 1-2 8-2 9-2 10 1 18 6 25 10l21 11c16 9 30 17 47 22 9 3 16 5 24 5h15c2-1 3-4 3-6-1-2-7-4-9-2l-1 3-7 1-7-4-11-9c-2-3-6-7-10-9-6-2-13-1-16 2-2 3-1 6 1 7s7 1 8-1c3-2 1-5-1-7 5 0 6 3 7 5 1 4 1 8 4 12-21-7-39-20-56-27-6-3-12-8-19-10-11-4-21-7-29-4-2 1-6 4-6 8 1 4 12 7 13 0M52-340c4 0 8-3 13-6v3c1 2 6 0 9-1 0 2-2 4-5 6-4 1 0 1 2 2-6 2-12 0-18-2 2 0 7 1 9-1-3 0-7 1-10-1m-23-23c5-1 8-4 10-8v5h2c6 0 9 5 14 7-7 2-12 0-17-1-1 2 2 4 2 7-3-4-7-6-12-8l16-1c-4-2-9-1-15-1m79 16c-2-3-8 0-11 3 2-4 2-13-5-14-3-1-8 3-7 6 2 3 7 3 10 2 1 3 1 6-2 8 0-2-1-4-4-5l-1 1c3 3 4 7 0 10-11 10-25 6-35 0 8 2 16 5 23 0-1-2-4-1-5-2l5-5c0-1 2-3 1-4s-7 4-9 3c0-2 3-5 0-8-4 5-11 11-18 10-7 0-13-7-19-8s-15 3-14 8c1 4 4 6 7 8-9 0-17-5-17-13 0-4 3-7 6-9 6-4 17-4 21 0 3 1 5 5 5 8 4-1 3-7 1-10 5 1 10 2 17 1 4-1 2-2 0-4-6-2-10-6-16-7 0-2-1-7-3-6l-1 3c-2 5-9 7-16 9-3 0-7 2-10 4-6 3-8 12-3 19 2 3 9 8 14 8 7-1 15-3 15-8 0-2-2-3-3-3-2-1-4 0-5 1-2 1-4 2-3 4-4-3-6-8-1-10l5-1c5 0 9 4 13 7 9 8 20 13 30 12 7 0 14-4 21-8 2 0 6 2 7-1-1-3-4-2-6-2 3-5 9-5 13-7M-19-367l8-2c5 0 9 5 13 8l-4-7c3 0 4-5-1-4-1 0-2 1-2 3-5-3-11-5-14-4-4 2-4 5 0 6"/>
      <path fill="#693f3e" fill-rule="evenodd" d="M-63-336c2-1 5-1 2-2-3-2-5-4-5-6 2 1 7 3 9 1v-3c4 3 9 6 13 6-3 2-7 1-11 1 3 2 7 1 10 1-6 2-12 4-18 2m32-17c-1-3 2-5 2-7-5 1-11 3-17 1 4-2 7-7 14-7h2v-5c1 4 5 7 10 8-6 0-12-1-15 1l16 1c-5 2-9 4-12 8m-63 15c1 3 6 1 8 1 7 4 14 8 20 8 10 1 22-4 31-12 4-3 8-7 12-7l5 1c6 2 4 7 0 10l-2-4c-1-1-3-2-6-1-1 0-2 1-2 3v1c-1 1 0 2 2 3l1 1c3 1 7 3 11 3 6 0 12-5 15-8 4-7 2-16-4-19-2-2-6-4-10-4-7-2-14-4-16-9l-1-3c-1-1-3 4-2 6-7 1-11 5-16 7-3 2-4 3 0 4 6 1 12 0 16-1-2 3-3 9 1 10 1-3 2-7 5-8 5-4 16-4 22 0 3 2 5 5 5 9 0 9-8 14-18 12 4-1 7-3 7-7 1-5-7-9-13-8-7 1-12 8-19 8-7 1-14-5-18-10-3 3-1 6 0 8-2 1-8-4-10-3-1 1 1 3 2 4l5 5c-2 1-4 0-5 2 7 5 15 2 22 0-9 6-23 10-35 0-3-3-2-7 1-10l-1-1c-3 1-4 3-4 5-3-2-3-5-2-8 3 1 7 1 9-2s-3-7-6-6c-8 1-7 10-5 14-4-3-9-6-12-3 4 2 11 2 14 7-2 0-5-1-7 2M8-399c-1-2-6-2-7 0-1 5 8 5 7 0"/>
      <path fill="#693f3e" fill-rule="evenodd" d="M3-372c3 1 6-2 8-3 4-6 2-20-7-19-9 0-10 13-6 19l5 3"/>
      <path fill="#693f3e" fill-rule="evenodd" d="M-6-388c4 0 3-6-2-4-2 2-1 4 2 4M15-388c3 0 4-2 2-4-5-2-6 4-2 4M-9-381c4 2 6-5 1-5-2 1-3 4-1 5M15-386c-3 1-1 6 2 5 3 0 3-6-2-5M11-372c-4 0-2 4 0 4-3 2-5 5-5 7 4-3 9-8 14-8l7 2c4-1 5-4 1-6-4-1-9 0-14 3 0-1-1-3-3-2M5-366c1-1 2-1 2-3-2-2-3-2-5 0 0 2 1 2 3 3M-5-394c5 1 6-3 3-4-4-1-5 3-3 4M14-394l1-1c1-4-6-4-6-1 0 2 2 3 5 2M-7-379l-3 3c0 2 5 3 6 1s-1-4-3-4M19-376c0-1-2-3-4-3-1 1-3 3-2 4 1 2 6 1 6-1M156-344c11-4 23-5 37 0-13-2-25-2-37 0m35 13c2-2 2-6 2-9 5 0 8 5 12 6 4-7-6-13-15-17 2-1 5-2 1-3-8-4-18-2-25 1-2-1 1-3 0-4s-6 2-8 4l-4 5-1-4c-4-1-7 5-9 8-2 2-7 6-11 7-5 2-11 1-15-2 3-4-4-7-7-4-2 3 0 7 4 8 8 3 17 1 25 0l9-2 13 3h5c1-2-3-3-2-4 7-3 19 3 26 7"/>
      <path fill="#693f3e" fill-rule="evenodd" d="M141-355c-5-2-2 5-2 7l-6 8c6 0 15-12 8-15"/>
      <path fill="#693f3e" fill-rule="evenodd" d="M126-340c6 1 13-10 8-13-4-1-3 4-3 6s-3 5-5 7M144-326c-6 5 5 11 10 10l5-4c4 3 9-3 6-5-4 4-5-1-7-3l-5-4c-6-3-10 0-15 1l-12-1c5 6 16 2 23 4 2 0 4 1 5 3 2 2-2 6-6 4 6-3 0-7-4-5M-188-344c15-5 27-4 38 0-12-2-24-2-38 0m79 9c4-1 6-5 4-8-3-3-10 0-7 4-5 3-10 4-15 2-4-1-9-5-12-7-1-3-4-9-8-8-2 0-1 3-1 4l-5-5c-1-2-6-5-7-4-2 1 1 3 0 4-7-3-17-5-25-1-5 1-1 2 1 3-9 4-19 10-15 17 4-1 7-6 12-6 0 3 0 7 2 9 7-4 19-10 26-7 1 1-3 2-3 4h6l13-3 9 2c8 1 16 3 25 0"/>
      <path fill="#693f3e" fill-rule="evenodd" d="M-135-355c-7 3 2 15 8 15l-6-8c0-2 2-9-2-7"/>
      <path fill="#693f3e" fill-rule="evenodd" d="M-121-340l-4-7c0-2 1-7-3-6-5 3 2 14 7 13M-143-328c7-2 17 2 23-4l-13 1c-4-1-9-4-14-1l-5 4c-2 2-3 7-7 3-4 2 1 8 6 5l4 4c6 1 17-5 11-10-4-2-10 2-5 5-3 2-7-2-5-4 1-2 3-3 5-3M216-396c-4 3-9 5-11 9h1l4-4c1-1 3-3 5-3 3-1 7-3 11-2h6c4 1 8 4 8 7 1 2-1 5-4 6s-9 1-8-3c0-2 3-3 5-1-5-1-4 3-1 3 4 1 6-5 2-6s-8 1-9 4c0 4 3 5 7 6h2c5-1 10-3 11-7 2 0 1 3 2 4l2-2c1-4-4-5-5-8 1 0 4-3 1-3l-7-1c9-1 16-5 17-12 1-4-2-6-6-6s-8 3-6 7l4 1c1-2 0-3-1-4 0-2 3-3 5-2 1 1 2 6 1 8-2 4-8 7-14 7 1-1 0-3-2-3l-2 2h-5c0-1 0-3-2-3l-1 2c-2 2-7 3-10 4v-2c-2 0-2 2 0 2"/>
      <path fill="#693f3e" fill-rule="evenodd" d="M222-398c1 0 1-3-1-2-1 0-1 2 1 2M-230-397l-8 1c-2 0 1 3 2 3-1 3-6 4-6 8l2 2c2-1 1-4 3-4 1 4 6 6 11 7h2c3-1 7-2 6-6 0-3-5-5-9-4s-2 7 3 6c2 0 3-4-1-3 2-2 5-1 5 1 1 4-6 4-9 3-2-1-4-4-4-6 1-3 5-6 9-7h6c4-1 7 1 11 2l5 3 4 4h1c-2-4-7-6-11-9v0c-3-1-9-2-10-4l-2-2-2 3h-4l-2-2c-2 0-3 2-2 3-6 0-12-3-15-7-1-2 0-7 2-8s4 0 5 2c-1 1-2 2-1 4l4-1c2-4-2-7-6-7-5 0-7 2-6 6 1 7 8 11 17 12"/>
      <path fill="#693f3e" fill-rule="evenodd" d="M-215-398l1-2c-2-1-2 2-1 2M99-399c-5 1-10 4-15 9v-4c-3-3-8 1-11 2 0-2 2-5 5-7 4-3 0-2-3-3 8-3 15-1 22 1-2 1-8-1-11 2h13m-67 13c3 3 9 0 13-4-2 4-1 16 8 17 4 0 9-5 7-8-3-4-8-3-11-2-2-3-2-7 0-10 1 2 3 5 6 6l2-1c-5-4-6-9-3-12 13-13 30-10 42-3-8-2-18-4-27 2l7 1c-2 3-5 4-6 7 0 1-2 4-1 5 2 1 9-5 11-5 0 3-3 7 1 10 5-6 12-13 21-14 8 0 16 8 23 9 8 1 17-4 16-11-2-8-14-11-21-7-2 1-3 3-2 4 4 8 13 2 12-2 5 3 8 9 1 12l-5 1c-6 0-11-4-16-7-12-9-26-15-39-13-7 2-15 7-23 12-3 1-8-2-9 2 2 3 6 2 8 2-3 6-11 6-15 9M-92-401c7-2 15-4 22-1-3 1-7 0-2 3 2 2 5 5 5 7-3-1-9-5-11-2-1 1 1 3-1 4-4-5-9-8-15-9h13c-2-3-8-1-11-2m-28 13c8-1 16-9 24-9 9 1 16 8 21 14 3-3 1-7 0-10 3 0 9 6 12 5 1-1-1-4-2-5l-5-7 6-1c-8-6-18-4-27-2 13-7 29-10 42 3 4 3 2 8-2 12l2 1c3-1 4-4 5-6 3 3 2 7 1 10-3-1-9-2-11 2-3 3 3 8 7 8 9-1 9-13 8-17 3 4 9 7 13 4-5-3-12-3-16-9 3 0 7 1 9-2-1-4-7-1-9-2-8-5-16-10-24-12-12-2-26 4-38 13-5 3-11 7-16 7l-6-1c-6-3-3-9 2-12-1 4 8 10 12 2 1-1 0-3-3-4-6-4-18-1-20 7-2 7 8 12 15 11M-471-419l-3 1-1-3c2-2 4 0 4 2m-12 5c2 5 8 2 11 0 7 8 13-2 5-6l3-4c1-6-6-4-9-1 0-2-2-5-4-5-5 3-4 8-2 11l-4 5"/>
      <path fill="#693f3e" fill-rule="evenodd" d="M-433-429l3-2c-2-8-10 3-14 2 2-2 3-4 1-6-2-1-7 4-5 7l-4 2c1-3-1-9-5-8-3 2 0 4 0 6v5c0 3-3 5-3 8-1 2 0 6 1 9-3-1-7-2-9-1-3 0-5 3-8 3l-4-1c-3 0-5-2-7 1 0 4 5 6 8 4l-2 5c-3-3-8 3-6 5 1 2 4 1 5-1 1 4-10 12-2 14l2-3c3 5-2 10 2 16 5-1 3-6 1-10l-1-9c1 1 2 6 4 5 5-2-1-7-4-9l1-4c1 3 5 6 7 4 3-3-3-7-6-8 3-10 15-12 21-8l2 3c1 2 2 4 1 6-2 3-6 6-8 4-2-1-4-5-3-6 1-3 5-3 7 0 0-5-6-5-8 0s7 11 11 8c3-2 4-8 3-11h1c2 0 8 0 10-3 3-4-3-14-8-12s-5 8 0 9c-2-2-3-6 0-7 2-1 5 1 6 3 2 2 0 6-3 8l-7-1-2-3c-5-6-2-17 7-20 1 3 5 8 8 6 2-2-1-6-4-7l4-1c2 3 7 9 9 4 1-2-4-4-5-5 2 1 7 0 9 2 4 2 9 3 10-2-5-3-11 1-16-1M-472 423l1 3-2 1c-2-1-1-4 1-4m5 12c5-2 2-8 0-11 8-7-2-13-5-5l-5-3c-6 0-4 6-1 9-2 0-5 2-5 4 4 5 8 5 11 2l5 4"/>
      <path fill="#693f3e" fill-rule="evenodd" d="M-482 385l-2-3c-8 2 3 10 2 14-1-2-4-3-5-1-2 2 3 7 6 5l2 4c-3-1-8 1-8 5 2 3 4 0 7 0h4c3 0 5 3 8 3 2 1 6 0 9-1-1 3-2 7-1 9 0 3 3 5 3 8v5c0 2-3 4 0 6 4 0 6-5 5-8l4 2c-2 3 3 8 5 6 2-1 1-4-1-5 4-1 12 10 14 2l-3-2c5-3 11 2 16-1-1-6-6-4-10-2l-9 1c1-1 6-2 5-4-2-5-7 1-9 4l-4-1c3-1 6-5 4-7-3-3-7 3-8 6-9-3-12-15-7-21l2-2c2-1 4-2 7-1 3 2 5 6 3 8-1 2-4 4-6 3-3-1-2-5 0-7-5 0-5 6 0 8 5 3 11-7 8-11-2-3-8-4-10-3h-1v-1c1-2 0-8-3-10-4-3-13 3-11 8s8 5 8 0c-2 2-6 3-7 0-1-2 1-5 3-6 2-2 6 1 8 3 1 3 0 5-1 7l-2 3c-6 4-18 1-21-8 3-1 9-5 6-8-2-2-6 1-7 4l-1-4c3-2 9-7 4-9-2-1-3 4-4 5l1-9c2-4 4-9-1-10-4 5 1 11-2 16M470 424l2-1 1 2c-1 3-4 1-3-1m11-5c-2-5-8-2-11 0-7-8-13 2-5 6l-3 4c0 6 6 4 9 1 1 2 2 5 5 5 5-3 4-8 1-11 2-1 4-3 4-5"/>
      <path fill="#693f3e" fill-rule="evenodd" d="M431 434l-3 2c2 8 10-3 14-2-2 1-3 4-1 5 2 2 8-3 6-6l4-2c-2 3 0 8 4 8 3-2 1-4 1-6l-1-5c0-3 3-5 4-8l-1-9c3 1 6 2 8 1 3 0 6-3 8-3h5c2 0 4 3 6 0 1-4-5-6-7-5l1-4c3 2 8-3 7-5-2-2-4-1-6 1-1-4 10-12 2-14l-2 3c-2-5 2-11-1-16-5 1-4 6-2 10 2 2 1 7 2 9-1-1-3-6-5-5-5 2 1 7 4 9l-1 4c-1-3-5-6-7-4-2 3 3 7 6 8-3 9-14 12-20 8l-3-3-1-7c2-2 6-5 8-3 2 1 4 4 3 6-1 3-5 2-7 0 1 5 7 5 9 0s-8-11-12-8c-3 2-3 8-3 10v1c-3 0-9 0-11 3-2 4 3 14 8 11 5-2 5-8 0-8 3 2 3 6 0 7-1 1-5-1-6-3s1-6 4-8c2-1 5 0 6 1l3 2c4 6 2 18-8 21-1-3-5-9-7-6-3 2 0 6 3 7l-3 1c-3-3-8-9-10-4-1 2 4 3 5 4l-9-1c-4-2-9-4-10 2 6 3 11-2 16 1M470-419l-1-2 3-1c2 1 0 4-2 3m-5-11c-5 2-2 8 0 11-8 7 2 13 6 5l4 3c6 0 4-6 1-9 2-1 5-2 5-5-3-4-8-4-11-1l-5-4"/>
      <path fill="#693f3e" fill-rule="evenodd" d="M480-380l2 3c8-2-3-10-2-14 2 2 4 3 6 1 1-2-4-8-7-5l-1-5c2 2 8 0 7-4-2-3-4-1-6-1l-5 1c-2 0-5-3-8-3-2-1-5 0-8 1l1-9c-1-3-4-5-4-8l1-5c0-2 2-4-1-6-4-1-6 5-4 8l-4-2c2-3-4-8-6-7-2 2-1 4 1 6-4 1-12-10-14-2l3 2c-5 2-10-2-16 1 1 5 6 4 10 2 3-2 7-1 9-2-1 1-6 3-5 5 2 5 7-1 10-4l3 1c-3 1-6 5-3 7 2 2 6-3 7-6 10 3 12 14 8 20l-3 3-6 1c-3-2-5-6-4-8s5-4 6-3c3 1 3 5 0 7 5-1 5-7 0-9s-10 8-8 12c2 3 8 3 11 3 0 3 0 9 3 11 4 3 14-3 12-8s-8-5-9 0c2-3 6-3 7 0 1 1-1 5-3 6-2 2-6-1-8-4l1-6 3-3c6-4 17-2 20 8-3 1-8 5-6 8 2 2 6-1 7-4l1 4c-3 2-9 7-4 9 2 1 4-4 5-5-1 2 0 7-2 9-2 4-3 9 2 10 3-6-1-11 1-16"/>
    </g>
  </g>
</svg>
